<mxfile host="app.diagrams.net" modified="2024-06-30T02:30:54.412Z" agent="Mozilla/5.0 (Windows NT 10.0; Win64; x64) AppleWebKit/537.36 (KHTML, like Gecko) Chrome/126.0.0.0 Safari/537.36" etag="JgUFcyB76IEtC4XkbctO" version="24.4.13" type="github">
  <diagram name="Page-1" id="uvxl58Gkmtpq-BO5B7qE">
    <mxGraphModel dx="2074" dy="2192" grid="1" gridSize="10" guides="1" tooltips="1" connect="1" arrows="1" fold="1" page="1" pageScale="1" pageWidth="850" pageHeight="1100" math="0" shadow="0">
      <root>
        <mxCell id="0" />
        <mxCell id="1" parent="0" />
        <mxCell id="za2RijrE2fHr1rWfp9be-4" value="&#xa;&lt;li&gt;&lt;strong&gt;Description:&lt;/strong&gt; The landing page for the application where users can navigate to different sections like Tutorials, Videos, Safety, and Troubleshooting.&lt;/li&gt;&lt;li&gt;&lt;strong&gt;Functionality:&lt;/strong&gt; Displays an overview and navigation links to other sections.&lt;/li&gt;&#xa;&#xa;" style="html=1;shadow=0;dashed=0;shape=mxgraph.bootstrap.rrect;rSize=5;strokeColor=#0085FC;html=1;whiteSpace=wrap;fillColor=#ffffff;fontColor=#0085FC;verticalAlign=middle;align=left;spacing=20;spacingBottom=0;fontSize=14;textDirection=ltr;" vertex="1" parent="1">
          <mxGeometry x="30" y="-145" width="250" height="260" as="geometry" />
        </mxCell>
        <mxCell id="za2RijrE2fHr1rWfp9be-5" value="Home" style="html=1;shadow=0;dashed=0;shape=mxgraph.bootstrap.topButton;rSize=5;perimeter=none;whiteSpace=wrap;fillColor=#F7F7F7;strokeColor=#0085FC;fontColor=#212529;resizeWidth=1;fontSize=18;align=left;spacing=20;" vertex="1" parent="za2RijrE2fHr1rWfp9be-4">
          <mxGeometry width="250" height="50" relative="1" as="geometry" />
        </mxCell>
        <mxCell id="za2RijrE2fHr1rWfp9be-6" value="&#xa;&lt;li&gt;&lt;strong&gt;Description:&lt;/strong&gt; Section where users can find step-by-step guides on operating the machine.&lt;/li&gt;&lt;li&gt;&lt;strong&gt;Functionality:&lt;/strong&gt; Displays a list of tutorials fetched from the backend. Each tutorial includes text, images, and embedded videos.&lt;/li&gt;&#xa;&#xa;" style="html=1;shadow=0;dashed=0;shape=mxgraph.bootstrap.rrect;rSize=5;strokeColor=#0085FC;html=1;whiteSpace=wrap;fillColor=#ffffff;fontColor=#0085FC;verticalAlign=bottom;align=left;spacing=20;spacingBottom=0;fontSize=14;" vertex="1" parent="1">
          <mxGeometry x="30" y="120" width="250" height="250" as="geometry" />
        </mxCell>
        <mxCell id="za2RijrE2fHr1rWfp9be-7" value="Tutorials" style="html=1;shadow=0;dashed=0;shape=mxgraph.bootstrap.topButton;rSize=5;perimeter=none;whiteSpace=wrap;fillColor=#F7F7F7;strokeColor=#0085FC;fontColor=#212529;resizeWidth=1;fontSize=18;align=left;spacing=20;" vertex="1" parent="za2RijrE2fHr1rWfp9be-6">
          <mxGeometry width="250" height="50" relative="1" as="geometry" />
        </mxCell>
        <mxCell id="za2RijrE2fHr1rWfp9be-8" value="&#xa;&lt;li&gt;&lt;strong&gt;Description:&lt;/strong&gt; Repository of instructional videos related to machine operation and maintenance.&lt;/li&gt;&lt;li&gt;&lt;strong&gt;Functionality:&lt;/strong&gt; Fetches and displays a list of video links or embedded video players from the backend.&lt;/li&gt;&#xa;&#xa;" style="html=1;shadow=0;dashed=0;shape=mxgraph.bootstrap.rrect;rSize=5;strokeColor=#0085FC;html=1;whiteSpace=wrap;fillColor=#ffffff;fontColor=#0085FC;verticalAlign=bottom;align=left;spacing=20;spacingBottom=0;fontSize=14;" vertex="1" parent="1">
          <mxGeometry x="30" y="380" width="250" height="250" as="geometry" />
        </mxCell>
        <mxCell id="za2RijrE2fHr1rWfp9be-9" value="Videos" style="html=1;shadow=0;dashed=0;shape=mxgraph.bootstrap.topButton;rSize=5;perimeter=none;whiteSpace=wrap;fillColor=#F7F7F7;strokeColor=#0085FC;fontColor=#212529;resizeWidth=1;fontSize=18;align=left;spacing=20;" vertex="1" parent="za2RijrE2fHr1rWfp9be-8">
          <mxGeometry width="250" height="50" relative="1" as="geometry" />
        </mxCell>
        <mxCell id="za2RijrE2fHr1rWfp9be-10" value="&#xa;&lt;li&gt;&lt;strong&gt;Description:&lt;/strong&gt; Contains important safety protocols and guidelines for operating the machine.&lt;/li&gt;&lt;li&gt;&lt;strong&gt;Functionality:&lt;/strong&gt; Displays safety information fetched from the backend, including text, images, and videos.&lt;/li&gt;&#xa;&#xa;" style="html=1;shadow=0;dashed=0;shape=mxgraph.bootstrap.rrect;rSize=5;strokeColor=#0085FC;html=1;whiteSpace=wrap;fillColor=#ffffff;fontColor=#0085FC;verticalAlign=bottom;align=left;spacing=20;spacingBottom=0;fontSize=14;" vertex="1" parent="1">
          <mxGeometry x="30" y="640" width="250" height="250" as="geometry" />
        </mxCell>
        <mxCell id="za2RijrE2fHr1rWfp9be-11" value="Safety" style="html=1;shadow=0;dashed=0;shape=mxgraph.bootstrap.topButton;rSize=5;perimeter=none;whiteSpace=wrap;fillColor=#F7F7F7;strokeColor=#0085FC;fontColor=#212529;resizeWidth=1;fontSize=18;align=left;spacing=20;" vertex="1" parent="za2RijrE2fHr1rWfp9be-10">
          <mxGeometry width="250" height="50" relative="1" as="geometry" />
        </mxCell>
        <mxCell id="za2RijrE2fHr1rWfp9be-12" value="&#xa;&lt;li&gt;&lt;strong&gt;Description:&lt;/strong&gt; Provides troubleshooting steps for common machine issues.&lt;/li&gt;&lt;li&gt;&lt;strong&gt;Functionality:&lt;/strong&gt; Displays a list of common issues and solutions fetched from the backend.&lt;/li&gt;&#xa;&#xa;" style="html=1;shadow=0;dashed=0;shape=mxgraph.bootstrap.rrect;rSize=5;strokeColor=#0085FC;html=1;whiteSpace=wrap;fillColor=#ffffff;fontColor=#0085FC;verticalAlign=bottom;align=left;spacing=20;spacingBottom=0;fontSize=14;" vertex="1" parent="1">
          <mxGeometry x="30" y="900" width="250" height="220" as="geometry" />
        </mxCell>
        <mxCell id="za2RijrE2fHr1rWfp9be-13" value="Troubleshooting" style="html=1;shadow=0;dashed=0;shape=mxgraph.bootstrap.topButton;rSize=5;perimeter=none;whiteSpace=wrap;fillColor=#F7F7F7;strokeColor=#0085FC;fontColor=#212529;resizeWidth=1;fontSize=18;align=left;spacing=20;" vertex="1" parent="za2RijrE2fHr1rWfp9be-12">
          <mxGeometry width="250" height="50" relative="1" as="geometry" />
        </mxCell>
        <mxCell id="za2RijrE2fHr1rWfp9be-14" value="&#xa;&lt;li&gt;&lt;strong&gt;Description:&lt;/strong&gt; Endpoint for fetching the home page data and navigation structure.&lt;/li&gt;&lt;li&gt;&lt;strong&gt;Functionality:&lt;/strong&gt; Returns data required to render the home page.&lt;/li&gt;&#xa;&#xa;" style="html=1;shadow=0;dashed=0;shape=mxgraph.bootstrap.rrect;rSize=5;strokeColor=#33A64C;html=1;whiteSpace=wrap;fillColor=#ffffff;fontColor=#33A64C;verticalAlign=bottom;align=left;spacing=20;spacingBottom=0;fontSize=14;" vertex="1" parent="1">
          <mxGeometry x="290" y="-145" width="250" height="240" as="geometry" />
        </mxCell>
        <mxCell id="za2RijrE2fHr1rWfp9be-15" value="API / Home" style="html=1;shadow=0;dashed=0;shape=mxgraph.bootstrap.topButton;rSize=5;perimeter=none;whiteSpace=wrap;fillColor=#F7F7F7;strokeColor=#33A64C;fontColor=#6C767D;resizeWidth=1;fontSize=18;align=left;spacing=20;" vertex="1" parent="za2RijrE2fHr1rWfp9be-14">
          <mxGeometry width="250" height="50" relative="1" as="geometry" />
        </mxCell>
        <mxCell id="za2RijrE2fHr1rWfp9be-16" value="&#xa;&lt;li&gt;&lt;strong&gt;Description:&lt;/strong&gt; Endpoint for managing and fetching tutorials.&lt;/li&gt;&lt;li&gt;&lt;strong&gt;Functionality:&lt;/strong&gt; Provides CRUD operations (Create, Read, Update, Delete) for tutorial data. Returns a list of tutorials for the frontend.&lt;/li&gt;&#xa;&#xa;" style="html=1;shadow=0;dashed=0;shape=mxgraph.bootstrap.rrect;rSize=5;strokeColor=#33A64C;html=1;whiteSpace=wrap;fillColor=#ffffff;fontColor=#33A64C;verticalAlign=bottom;align=left;spacing=20;spacingBottom=0;fontSize=14;" vertex="1" parent="1">
          <mxGeometry x="290" y="120" width="250" height="250" as="geometry" />
        </mxCell>
        <mxCell id="za2RijrE2fHr1rWfp9be-17" value="API / Tut" style="html=1;shadow=0;dashed=0;shape=mxgraph.bootstrap.topButton;rSize=5;perimeter=none;whiteSpace=wrap;fillColor=#F7F7F7;strokeColor=#33A64C;fontColor=#6C767D;resizeWidth=1;fontSize=18;align=left;spacing=20;" vertex="1" parent="za2RijrE2fHr1rWfp9be-16">
          <mxGeometry width="250" height="50" relative="1" as="geometry" />
        </mxCell>
        <mxCell id="za2RijrE2fHr1rWfp9be-18" value="&#xa;&lt;li&gt;&lt;strong&gt;Description:&lt;/strong&gt; Endpoint for managing and fetching videos.&lt;/li&gt;&lt;li&gt;&lt;strong&gt;Functionality:&lt;/strong&gt; Provides CRUD operations for video data. Returns a list of video links or video metadata for the frontend.&lt;/li&gt;&#xa;&#xa;" style="html=1;shadow=0;dashed=0;shape=mxgraph.bootstrap.rrect;rSize=5;strokeColor=#33A64C;html=1;whiteSpace=wrap;fillColor=#ffffff;fontColor=#33A64C;verticalAlign=bottom;align=left;spacing=20;spacingBottom=0;fontSize=14;" vertex="1" parent="1">
          <mxGeometry x="290" y="380" width="250" height="240" as="geometry" />
        </mxCell>
        <mxCell id="za2RijrE2fHr1rWfp9be-19" value="API / Video" style="html=1;shadow=0;dashed=0;shape=mxgraph.bootstrap.topButton;rSize=5;perimeter=none;whiteSpace=wrap;fillColor=#F7F7F7;strokeColor=#33A64C;fontColor=#6C767D;resizeWidth=1;fontSize=18;align=left;spacing=20;" vertex="1" parent="za2RijrE2fHr1rWfp9be-18">
          <mxGeometry width="250" height="50" relative="1" as="geometry" />
        </mxCell>
        <mxCell id="za2RijrE2fHr1rWfp9be-20" value="&#xa;&lt;li&gt;&lt;strong&gt;Description:&lt;/strong&gt; Endpoint for managing and fetching safety guidelines.&lt;/li&gt;&lt;li&gt;&lt;strong&gt;Functionality:&lt;/strong&gt; Provides CRUD operations for safety data. Returns a list of safety guidelines for the frontend.&lt;/li&gt;&#xa;&#xa;" style="html=1;shadow=0;dashed=0;shape=mxgraph.bootstrap.rrect;rSize=5;strokeColor=#33A64C;html=1;whiteSpace=wrap;fillColor=#ffffff;fontColor=#33A64C;verticalAlign=bottom;align=left;spacing=20;spacingBottom=0;fontSize=14;" vertex="1" parent="1">
          <mxGeometry x="290" y="640" width="250" height="250" as="geometry" />
        </mxCell>
        <mxCell id="za2RijrE2fHr1rWfp9be-21" value="API / Safe" style="html=1;shadow=0;dashed=0;shape=mxgraph.bootstrap.topButton;rSize=5;perimeter=none;whiteSpace=wrap;fillColor=#F7F7F7;strokeColor=#33A64C;fontColor=#6C767D;resizeWidth=1;fontSize=18;align=left;spacing=20;" vertex="1" parent="za2RijrE2fHr1rWfp9be-20">
          <mxGeometry width="250" height="50" relative="1" as="geometry" />
        </mxCell>
        <mxCell id="za2RijrE2fHr1rWfp9be-22" value="&#xa;&lt;li&gt;&lt;strong&gt;Description:&lt;/strong&gt; Endpoint for managing and fetching troubleshooting steps.&lt;/li&gt;&lt;li&gt;&lt;strong&gt;Functionality:&lt;/strong&gt; Provides CRUD operations for troubleshooting data. Returns a list of troubleshooting steps for the frontend.&lt;/li&gt;&#xa;&#xa;" style="html=1;shadow=0;dashed=0;shape=mxgraph.bootstrap.rrect;rSize=5;strokeColor=#33A64C;html=1;whiteSpace=wrap;fillColor=#ffffff;fontColor=#33A64C;verticalAlign=bottom;align=left;spacing=20;spacingBottom=0;fontSize=14;" vertex="1" parent="1">
          <mxGeometry x="290" y="900" width="250" height="250" as="geometry" />
        </mxCell>
        <mxCell id="za2RijrE2fHr1rWfp9be-23" value="API / Trbl" style="html=1;shadow=0;dashed=0;shape=mxgraph.bootstrap.topButton;rSize=5;perimeter=none;whiteSpace=wrap;fillColor=#F7F7F7;strokeColor=#33A64C;fontColor=#6C767D;resizeWidth=1;fontSize=18;align=left;spacing=20;" vertex="1" parent="za2RijrE2fHr1rWfp9be-22">
          <mxGeometry width="250" height="50" relative="1" as="geometry" />
        </mxCell>
        <mxCell id="za2RijrE2fHr1rWfp9be-24" value="&#xa;&lt;li&gt;&lt;strong&gt;Description:&lt;/strong&gt; Table storing data related to the home page content and navigation structure.&lt;/li&gt;&lt;li&gt;&lt;strong&gt;Functionality:&lt;/strong&gt; Stores and retrieves home page content data.&lt;/li&gt;&#xa;&#xa;" style="html=1;shadow=0;dashed=0;shape=mxgraph.bootstrap.rrect;rSize=5;strokeColor=#6C767D;html=1;whiteSpace=wrap;fillColor=#ffffff;fontColor=#6C767D;verticalAlign=bottom;align=left;spacing=20;spacingBottom=0;fontSize=14;" vertex="1" parent="1">
          <mxGeometry x="550" y="-145" width="250" height="240" as="geometry" />
        </mxCell>
        <mxCell id="za2RijrE2fHr1rWfp9be-25" value="HomeTable" style="html=1;shadow=0;dashed=0;shape=mxgraph.bootstrap.topButton;rSize=5;perimeter=none;whiteSpace=wrap;fillColor=#F7F7F7;strokeColor=#6C767D;fontColor=#6C767D;resizeWidth=1;fontSize=18;align=left;spacing=20;" vertex="1" parent="za2RijrE2fHr1rWfp9be-24">
          <mxGeometry width="250" height="50" relative="1" as="geometry" />
        </mxCell>
        <mxCell id="za2RijrE2fHr1rWfp9be-26" value="&#xa;&lt;li&gt;&lt;strong&gt;Description:&lt;/strong&gt; Table storing tutorial information.&lt;/li&gt;&lt;li&gt;&lt;strong&gt;Functionality:&lt;/strong&gt; Stores and retrieves tutorial data, including text, images, and video links.&lt;/li&gt;&#xa;&#xa;" style="html=1;shadow=0;dashed=0;shape=mxgraph.bootstrap.rrect;rSize=5;strokeColor=#6C767D;html=1;whiteSpace=wrap;fillColor=#ffffff;fontColor=#6C767D;verticalAlign=bottom;align=left;spacing=20;spacingBottom=0;fontSize=14;" vertex="1" parent="1">
          <mxGeometry x="550" y="120" width="250" height="230" as="geometry" />
        </mxCell>
        <mxCell id="za2RijrE2fHr1rWfp9be-27" value="TutTable" style="html=1;shadow=0;dashed=0;shape=mxgraph.bootstrap.topButton;rSize=5;perimeter=none;whiteSpace=wrap;fillColor=#F7F7F7;strokeColor=#6C767D;fontColor=#6C767D;resizeWidth=1;fontSize=18;align=left;spacing=20;" vertex="1" parent="za2RijrE2fHr1rWfp9be-26">
          <mxGeometry width="250" height="50" relative="1" as="geometry" />
        </mxCell>
        <mxCell id="za2RijrE2fHr1rWfp9be-28" value="&#xa;&lt;li&gt;&lt;strong&gt;Description:&lt;/strong&gt; Table storing video metadata.&lt;/li&gt;&lt;li&gt;&lt;strong&gt;Functionality:&lt;/strong&gt; Stores and retrieves video data, including video titles, descriptions, and URLs.&lt;/li&gt;&#xa;&#xa;" style="html=1;shadow=0;dashed=0;shape=mxgraph.bootstrap.rrect;rSize=5;strokeColor=#6C767D;html=1;whiteSpace=wrap;fillColor=#ffffff;fontColor=#6C767D;verticalAlign=bottom;align=left;spacing=20;spacingBottom=0;fontSize=14;" vertex="1" parent="1">
          <mxGeometry x="550" y="380" width="250" height="230" as="geometry" />
        </mxCell>
        <mxCell id="za2RijrE2fHr1rWfp9be-29" value="VideoTable" style="html=1;shadow=0;dashed=0;shape=mxgraph.bootstrap.topButton;rSize=5;perimeter=none;whiteSpace=wrap;fillColor=#F7F7F7;strokeColor=#6C767D;fontColor=#6C767D;resizeWidth=1;fontSize=18;align=left;spacing=20;" vertex="1" parent="za2RijrE2fHr1rWfp9be-28">
          <mxGeometry width="250" height="50" relative="1" as="geometry" />
        </mxCell>
        <mxCell id="za2RijrE2fHr1rWfp9be-30" value="&#xa;&lt;li&gt;&lt;strong&gt;Description:&lt;/strong&gt; Table storing safety guidelines.&lt;/li&gt;&lt;li&gt;&lt;strong&gt;Functionality:&lt;/strong&gt; Stores and retrieves safety information, including text, images, and video links.&lt;/li&gt;&#xa;&#xa;" style="html=1;shadow=0;dashed=0;shape=mxgraph.bootstrap.rrect;rSize=5;strokeColor=#6C767D;html=1;whiteSpace=wrap;fillColor=#ffffff;fontColor=#6C767D;verticalAlign=bottom;align=left;spacing=20;spacingBottom=0;fontSize=14;" vertex="1" parent="1">
          <mxGeometry x="550" y="640" width="250" height="220" as="geometry" />
        </mxCell>
        <mxCell id="za2RijrE2fHr1rWfp9be-31" value="SafeTable" style="html=1;shadow=0;dashed=0;shape=mxgraph.bootstrap.topButton;rSize=5;perimeter=none;whiteSpace=wrap;fillColor=#F7F7F7;strokeColor=#6C767D;fontColor=#6C767D;resizeWidth=1;fontSize=18;align=left;spacing=20;" vertex="1" parent="za2RijrE2fHr1rWfp9be-30">
          <mxGeometry width="250" height="50" relative="1" as="geometry" />
        </mxCell>
        <mxCell id="za2RijrE2fHr1rWfp9be-32" value="&#xa;&lt;li&gt;&lt;strong&gt;Description:&lt;/strong&gt; Table storing troubleshooting steps and solutions.&lt;/li&gt;&lt;li&gt;&lt;strong&gt;Functionality:&lt;/strong&gt; Stores and retrieves troubleshooting data, including common issues and their solutions.&lt;/li&gt;&#xa;&#xa;" style="html=1;shadow=0;dashed=0;shape=mxgraph.bootstrap.rrect;rSize=5;strokeColor=#6C767D;html=1;whiteSpace=wrap;fillColor=#ffffff;fontColor=#6C767D;verticalAlign=bottom;align=left;spacing=20;spacingBottom=0;fontSize=14;" vertex="1" parent="1">
          <mxGeometry x="550" y="900" width="250" height="250" as="geometry" />
        </mxCell>
        <mxCell id="za2RijrE2fHr1rWfp9be-33" value="TrblTable" style="html=1;shadow=0;dashed=0;shape=mxgraph.bootstrap.topButton;rSize=5;perimeter=none;whiteSpace=wrap;fillColor=#F7F7F7;strokeColor=#6C767D;fontColor=#6C767D;resizeWidth=1;fontSize=18;align=left;spacing=20;" vertex="1" parent="za2RijrE2fHr1rWfp9be-32">
          <mxGeometry width="250" height="50" relative="1" as="geometry" />
        </mxCell>
        <mxCell id="za2RijrE2fHr1rWfp9be-35" value="Frontend" style="html=1;shadow=0;dashed=0;shape=mxgraph.bootstrap.rrect;rSize=5;strokeColor=#0085FC;strokeWidth=1;fillColor=none;fontColor=#0085FC;whiteSpace=wrap;align=center;verticalAlign=middle;spacingLeft=0;fontStyle=0;fontSize=16;spacing=5;" vertex="1" parent="1">
          <mxGeometry x="30" y="-230" width="250" height="70" as="geometry" />
        </mxCell>
        <mxCell id="za2RijrE2fHr1rWfp9be-36" value="Backend" style="html=1;shadow=0;dashed=0;shape=mxgraph.bootstrap.rrect;rSize=5;strokeColor=#33A64C;strokeWidth=1;fillColor=none;fontColor=#33A64C;whiteSpace=wrap;align=center;verticalAlign=middle;spacingLeft=0;fontStyle=0;fontSize=16;spacing=5;" vertex="1" parent="1">
          <mxGeometry x="290" y="-230" width="250" height="70" as="geometry" />
        </mxCell>
        <mxCell id="za2RijrE2fHr1rWfp9be-37" value="Database" style="html=1;shadow=0;dashed=0;shape=mxgraph.bootstrap.rrect;rSize=5;strokeColor=#6C767D;strokeWidth=1;fillColor=none;fontColor=#6C767D;whiteSpace=wrap;align=center;verticalAlign=middle;spacingLeft=0;fontStyle=0;fontSize=16;spacing=5;" vertex="1" parent="1">
          <mxGeometry x="550" y="-230" width="250" height="70" as="geometry" />
        </mxCell>
        <mxCell id="za2RijrE2fHr1rWfp9be-40" value="Dark" style="html=1;shadow=0;dashed=0;shape=mxgraph.bootstrap.rrect;rSize=5;strokeColor=none;strokeWidth=1;fillColor=#343A40;fontColor=#FFFFFF;whiteSpace=wrap;align=left;verticalAlign=middle;spacingLeft=0;fontStyle=1;fontSize=14;spacing=5;" vertex="1" parent="1">
          <mxGeometry x="670" width="40" height="20" as="geometry" />
        </mxCell>
        <mxCell id="za2RijrE2fHr1rWfp9be-41" value="&amp;nbsp; &amp;nbsp;Training App" style="html=1;shadow=0;dashed=0;shape=mxgraph.bootstrap.rrect;rSize=5;strokeColor=none;strokeWidth=1;fillColor=#343A40;fontColor=#FFFFFF;whiteSpace=wrap;align=left;verticalAlign=middle;spacingLeft=0;fontStyle=1;fontSize=30;spacing=5;" vertex="1" parent="1">
          <mxGeometry x="291" y="-350" width="240" height="80" as="geometry" />
        </mxCell>
      </root>
    </mxGraphModel>
  </diagram>
</mxfile>
